<svg xmlns="http://www.w3.org/2000/svg" width="24" height="24" viewBox="0 0 24 24" fill="none">
<path d="M12 0C5.3728 0 0 5.3728 0 12C0 18.6272 5.3728 24 12 24C18.6272 24 24 18.6272 24 12C24 5.3728 18.6272 0 12 0ZM19.3184 8.4264C19.2056 8.4536 19.0968 8.4944 18.9936 8.548C18.7592 8.6768 18.552 8.8496 18.3824 9.056C18.3048 9.1592 18.232 9.2656 18.1648 9.376L17.9648 9.784L14.7208 17.2568C14.5408 17.6544 14.4728 17.8024 14.1608 17.8248C13.8104 17.8512 13.5448 17.6568 13.3784 17.2568L12.1192 14.5736L10.8488 17.2528C10.6656 17.6504 10.3888 17.7936 10.0776 17.8168C9.7264 17.8432 9.3856 17.6568 9.2192 17.2568L5.6992 9.7552C5.4256 9.1824 5.2872 8.8832 5.1656 8.6648C5.0184 8.4008 5.0472 8.3864 4.7272 8.3688C4.7256 8.3688 4.724 8.3688 4.7224 8.3688C4.6152 8.3752 4.5232 8.2936 4.516 8.1872C4.5096 8.0976 4.572 8.0176 4.66 8.0008C5.0472 7.9656 6.4256 7.9656 6.5416 7.9656H7.844C7.8592 7.964 7.8736 7.9648 7.8888 7.9672C7.964 7.9824 8.0128 8.0568 7.9968 8.132C7.9992 8.2336 7.9184 8.3168 7.8176 8.3192C7.6656 8.3192 7.5224 8.2928 7.4448 8.4912C7.3672 8.6896 7.5848 9.156 7.7992 9.5904L10.6392 15.56L10.7448 15.7328L11.7304 13.7456L9.8584 9.7552C9.5856 9.1824 9.4472 8.8832 9.3256 8.6648C9.1776 8.4008 9.2072 8.3864 8.8872 8.3688C8.8856 8.3688 8.884 8.3688 8.8824 8.3688C8.7752 8.3752 8.6832 8.2936 8.676 8.1872C8.6696 8.0976 8.732 8.0176 8.82 8.0008C9.2072 7.9656 10.5856 7.9656 10.7016 7.9656H11.9968C12.0112 7.964 12.0264 7.9648 12.0408 7.9672C12.1168 7.9824 12.1656 8.056 12.1504 8.132C12.1528 8.2328 12.072 8.3168 11.9712 8.3192C11.8192 8.3192 11.676 8.2928 11.5984 8.4912C11.5208 8.6896 11.7376 9.156 11.9528 9.5904L12.8368 11.516L13.7264 9.7232C13.9552 9.3224 14.1104 8.7472 13.9552 8.5472C13.8248 8.3832 13.5144 8.4416 13.0248 8.4256C12.9304 8.4192 12.856 8.3056 12.8504 8.1856C12.8504 8.0856 12.9208 7.9992 13.0184 7.98C14.1056 7.9624 14.2928 7.9624 14.4672 7.9624C14.56 7.9624 14.7296 7.9624 15.6376 7.98C15.7304 8.0048 15.7952 8.088 15.7976 8.184C15.7904 8.2864 15.7296 8.3776 15.6376 8.424C15.5264 8.4512 15.4192 8.492 15.3176 8.5456C15.208 8.6 15.1048 8.6672 15.0112 8.7456C14.8336 8.944 14.6872 9.1672 14.5752 9.4088C14.5408 9.4808 14.4912 9.5792 14.3928 9.78L13.1976 12.3008L14.6944 15.56L17.4488 9.5496C17.676 9.1488 17.8104 8.6736 17.6288 8.5472C17.4472 8.4208 17.0672 8.4928 16.6984 8.4256C16.592 8.3952 16.52 8.296 16.524 8.1856C16.5256 8.0848 16.5984 7.9992 16.6984 7.9824C17.7856 7.9648 17.9728 7.9648 18.1472 7.9648C18.24 7.9648 18.4104 7.9648 19.3184 7.9824C19.4112 8.008 19.476 8.0904 19.4784 8.1864C19.4704 8.2888 19.4096 8.38 19.3184 8.4264Z" fill="white"/>
</svg>
