<svg xmlns="http://www.w3.org/2000/svg" width="37" height="36" viewBox="0 0 37 36" fill="none">
<path d="M0.807966 12.7653C0.807966 12.7653 4.33113 4.30831e-05 18.4553 4.30831e-05C18.4553 4.30831e-05 33.5199 -0.143947 35.9631 16.2165C35.9631 16.2165 36.8945 20.8421 33.0294 20.8421H12.5788L15.2471 18.6508C15.2471 18.6508 16.201 17.7824 15.5081 16.9724C15.5081 16.9724 14.5947 16.1895 13.8567 16.8284L9.16817 20.6801C9.16817 20.6801 7.41784 21.8095 9.16817 23.2583L13.9422 27.1505C13.9422 27.1505 14.7971 27.7309 15.4766 26.975C15.4766 26.975 16.1425 26.1786 15.5036 25.5576L12.5654 23.0829H27.2115C27.2115 23.0829 29.0113 22.9569 29.7447 24.6217C29.7447 24.6217 30.5007 26.2866 29.3128 27.4969C29.3128 27.4969 25.4206 32.7254 18.1178 32.7254C18.1178 32.7254 8.50224 33.2294 4.29514 23.3213C4.29514 23.3213 3.35023 21.355 3.35023 16.716H1.34342C1.34342 16.716 0.281515 30.7546 14.8286 34.3723C14.8286 34.3723 28.3544 37.3195 33.8573 23.2044H35.2477C35.2477 23.2044 32.215 35.4522 18.1538 35.9966C18.1538 35.9966 4.43912 36.5906 0.488497 21.994C0.488497 21.994 -1.87378 15.1276 3.79118 15.1276H23.4858L20.8221 17.3414C20.8221 17.3414 19.8817 18.2008 20.6781 19.0197C20.6781 19.0197 21.3395 19.8207 22.3474 19.0197L26.928 15.2716C26.928 15.2716 28.4983 14.0252 26.928 12.6978L22.1224 8.79671C22.1224 8.79671 21.3305 8.25226 20.5836 9.02619C20.5836 9.02619 20.0166 9.84961 20.6151 10.3986L23.5938 12.8913H8.98369C8.98369 12.8913 6.87789 12.9453 6.24795 11.168C6.24795 11.168 5.46053 9.30516 7.72381 7.44684C7.72381 7.44684 12.0254 3.22174 18.0368 3.22174C18.0368 3.22174 30.1092 2.79428 32.5615 15.8025C32.5615 15.8025 32.7639 17.3054 32.6874 19.1862H34.6268C34.6268 19.1862 35.8596 7.32985 24.1743 2.49731C24.1743 2.49731 18.0728 -0.125944 11.8904 2.49731C11.8904 2.49731 5.16355 4.65261 2.20283 12.8058L0.807966 12.7743V12.7653Z" fill="url(#paint0_linear_2747_4367)"/>
<defs>
<linearGradient id="paint0_linear_2747_4367" x1="0" y1="0" x2="42.9488" y2="11.8189" gradientUnits="userSpaceOnUse">
<stop stop-color="#4E5BFF"/>
<stop offset="1" stop-color="#26D3A6"/>
</linearGradient>
</defs>
</svg>
