<svg width="155" height="36" viewBox="0 0 155 36" fill="none" xmlns="http://www.w3.org/2000/svg">
<path d="M18 0C8.0592 0 0 8.0592 0 18C0 27.9408 8.0592 36 18 36C27.9408 36 36 27.9408 36 18C36 8.0592 27.9408 0 18 0Z" fill="white"/>
<path d="M46.2856 19.7186H49.0718C49.3232 22.3589 50.8315 23.5775 53.7225 23.5775C56.2992 23.5775 57.4304 22.9231 57.4304 21.6142C57.4304 20.6438 56.9486 20.1248 55.4822 19.8314L50.8315 18.9287C48.192 18.4097 46.7046 17.0331 46.6837 14.799C46.6837 11.9782 49.1347 10.2856 53.0102 10.2856C57.1581 10.2856 59.7139 12.5198 59.9862 16.3335H57.2209C56.9905 13.9866 55.6079 12.8357 53.0102 12.8357C50.5802 12.8357 49.4489 13.5353 49.428 14.7764C49.4699 15.7242 49.9517 16.1756 51.3343 16.4464L56.0059 17.3491C58.7502 17.8907 60.1747 19.2898 60.1747 21.569C60.1747 24.4802 57.7866 26.1275 53.7225 26.1275C49.2604 26.1275 46.6208 23.8257 46.2856 19.7186Z" fill="white"/>
<path d="M64.1751 25.7665L60.8443 14.4831H63.5048L65.8511 23.5324H66.0396L68.721 14.4831H71.7377L74.4191 23.5324H74.6077L76.9539 14.4831H79.6145L76.2836 25.7665H72.8061L70.2294 17.1685L67.6527 25.7665H64.1751Z" fill="white"/>
<path d="M82.4123 18.7256H79.9403C80.1498 15.8371 82.119 14.1446 85.5546 14.1446C89.1159 14.1446 91.0851 15.7919 91.0851 18.8385V25.7665H88.7807L88.6341 24.1417H88.4455C87.5657 25.3151 86.1831 26.0824 84.3396 26.0824C81.8676 26.0824 80.1917 24.8187 80.1917 22.6748C80.1917 20.4407 82.1818 19.1093 85.3242 19.1093C86.4763 19.1093 87.6076 19.2447 88.5922 19.4478V18.8385C88.5922 17.146 87.7123 16.3561 85.5546 16.3561C83.5435 16.3561 82.5589 17.146 82.4123 18.7256ZM82.7265 22.4717C82.7265 23.4872 83.6273 23.8709 84.8423 23.8709C86.7277 23.8709 88.3198 22.8779 88.655 21.2982C87.7123 21.1177 86.6649 20.9823 85.4289 20.9823C83.7739 20.9823 82.7265 21.4562 82.7265 22.4717Z" fill="white"/>
<path d="M95.2292 29.8285H92.7363V14.4831H95.0407L95.1873 16.0853H95.3758C96.1719 14.957 97.5336 14.1671 99.3142 14.1671C102.457 14.1671 104.782 16.6044 104.782 20.1248C104.782 23.6452 102.457 26.0824 99.3142 26.0824C97.5336 26.0824 96.1929 25.2926 95.4177 24.1642H95.2292V29.8285ZM95.1664 20.1248C95.1664 22.2686 96.5071 23.7806 98.6858 23.7806C100.927 23.7806 102.226 22.404 102.226 20.1248C102.226 17.8455 100.906 16.469 98.6858 16.469C96.5071 16.469 95.1664 17.9809 95.1664 20.1248Z" fill="white"/>
<path d="M108.963 25.7665H106.24V10.6467H117.72V13.1742H108.963V16.7623H117.531V19.2898H108.963V25.7665Z" fill="white"/>
<path d="M121.742 10.6467V25.7665H119.27V10.6467H121.742Z" fill="white"/>
<path d="M123.149 20.1248C123.149 16.6044 125.642 14.1671 129.224 14.1671C132.827 14.1671 135.32 16.6044 135.32 20.1248C135.32 23.6452 132.827 26.0824 129.224 26.0824C125.642 26.0824 123.149 23.6452 123.149 20.1248ZM125.705 20.1248C125.705 22.404 127.024 23.7806 129.224 23.7806C131.445 23.7806 132.764 22.404 132.764 20.1248C132.764 17.8455 131.445 16.469 129.224 16.469C127.024 16.469 125.705 17.8455 125.705 20.1248Z" fill="white"/>
<path d="M138.846 25.7665L135.515 14.4831H138.176L140.522 23.5324H140.711L143.392 14.4831H146.409L149.09 23.5324H149.279L151.625 14.4831H154.286L150.955 25.7665H147.477L144.901 17.1685L142.324 25.7665H138.846Z" fill="white"/>
</svg>
