<svg xmlns="http://www.w3.org/2000/svg" width="180" height="39" viewBox="0 0 180 39" fill="none">
  <path d="M47.5682 28.1557C46.6291 27.7451 45.8928 27.1646 45.3548 26.4095C44.8169 25.6544 44.5479 24.7767 44.5479 23.7715H47.6154C47.6814 24.5265 47.9788 25.1448 48.5073 25.6309C49.0359 26.1169 49.7768 26.3576 50.7301 26.3576C51.6834 26.3576 52.4904 26.1169 53.0425 25.6403C53.5947 25.1637 53.8731 24.5454 53.8731 23.7903C53.8731 23.2052 53.7032 22.7285 53.3587 22.3557C53.0142 21.9876 52.5895 21.6997 52.0751 21.5015C51.5654 21.2986 50.8575 21.0815 49.9514 20.8455C48.8094 20.5435 47.8844 20.2367 47.1718 19.93C46.4592 19.6185 45.8504 19.1371 45.3501 18.4859C44.8452 17.8346 44.595 16.9616 44.595 15.8714C44.595 14.8662 44.8452 13.9837 45.3501 13.2333C45.8551 12.4782 46.5583 11.9025 47.4644 11.4966C48.3705 11.0908 49.4181 10.8926 50.6074 10.8926C52.3016 10.8926 53.6891 11.3173 54.7698 12.1621C55.8505 13.0068 56.4499 14.1677 56.5678 15.6449H53.4012C53.3493 15.0078 53.0473 14.4651 52.4951 14.012C51.9429 13.559 51.2115 13.3324 50.3054 13.3324C49.4842 13.3324 48.8141 13.5448 48.295 13.9601C47.7758 14.3801 47.5163 14.9842 47.5163 15.7723C47.5163 16.3103 47.6814 16.7492 48.0071 17.0937C48.3327 17.4382 48.748 17.7119 49.253 17.9101C49.7579 18.1131 50.4422 18.3301 51.3153 18.5661C52.4715 18.8823 53.4154 19.2032 54.1421 19.5194C54.8689 19.8356 55.4918 20.3264 56.0015 20.9918C56.5112 21.6525 56.766 22.5397 56.766 23.644C56.766 24.5313 56.5254 25.3713 56.0487 26.1594C55.5721 26.9475 54.8736 27.5799 53.9628 28.0566C53.0473 28.5332 51.9713 28.7739 50.7301 28.7739C49.555 28.7739 48.5026 28.571 47.5635 28.1604L47.5682 28.1557Z" fill="white"/>
  <path d="M63.5103 17.0794V24.7483C63.5103 25.2674 63.633 25.6402 63.8737 25.8667C64.1144 26.0933 64.5297 26.2065 65.1196 26.2065H66.8799V28.5945H64.6193C63.3263 28.5945 62.3399 28.2924 61.6509 27.6884C60.9619 27.0843 60.6221 26.1027 60.6221 24.7483V17.0794H58.9893V14.7434H60.6221V11.2983H63.515V14.7434H66.8846V17.0794H63.515H63.5103Z" fill="white"/>
  <path d="M69.4281 17.9098C70.0086 16.8385 70.7919 16.0032 71.7924 15.4085C72.7882 14.8139 73.8925 14.5166 75.1006 14.5166C76.1908 14.5166 77.1394 14.729 77.9558 15.1584C78.7675 15.5879 79.4188 16.1164 79.9049 16.7535V14.7431H82.7978V28.5942H79.9049V26.5319C79.4188 27.1831 78.7581 27.7306 77.918 28.1647C77.078 28.5989 76.1247 28.816 75.0534 28.816C73.8642 28.816 72.774 28.5092 71.783 27.9005C70.792 27.2869 70.0085 26.4328 69.4328 25.3379C68.857 24.2383 68.5645 22.9971 68.5645 21.6049C68.5645 20.2128 68.8523 18.981 69.4328 17.9098H69.4281ZM79.3102 19.1651C78.9185 18.4619 78.3994 17.9239 77.7623 17.5558C77.1252 17.1877 76.4362 17.0037 75.7 17.0037C74.9638 17.0037 74.2748 17.183 73.6377 17.5464C73.0006 17.905 72.4862 18.4336 72.0897 19.132C71.698 19.8258 71.4998 20.6517 71.4998 21.6097C71.4998 22.5677 71.698 23.403 72.0897 24.125C72.4814 24.8471 73.0053 25.3945 73.6471 25.7721C74.2936 26.1496 74.9732 26.3384 75.6953 26.3384C76.4173 26.3384 77.1205 26.1543 77.7576 25.7862C78.3947 25.4181 78.9091 24.8754 79.3055 24.1628C79.6972 23.4502 79.8954 22.6149 79.8954 21.6616C79.8954 20.7083 79.6972 19.8777 79.3055 19.1745L79.3102 19.1651Z" fill="white"/>
  <path d="M91.429 15.1533C92.2738 14.7238 93.2176 14.5115 94.2559 14.5115C95.4782 14.5115 96.5872 14.8041 97.5735 15.3892C98.5646 15.9744 99.3433 16.8097 99.9143 17.8905C100.485 18.9712 100.768 20.2076 100.768 21.5998C100.768 22.992 100.485 24.2379 99.9143 25.3327C99.3433 26.4323 98.5599 27.2865 97.5641 27.8953C96.5683 28.5088 95.464 28.8108 94.2559 28.8108C93.1846 28.8108 92.2313 28.6032 91.4007 28.1832C90.5701 27.7632 89.9142 27.2299 89.4281 26.5739V28.5843H86.5635V9.98096H89.4281V16.7956C89.9142 16.1254 90.5796 15.578 91.429 15.1486V15.1533ZM97.2621 19.1269C96.8704 18.4332 96.3465 17.9046 95.7047 17.5412C95.0582 17.1826 94.3691 16.9985 93.6282 16.9985C92.8873 16.9985 92.2266 17.1826 91.5801 17.5507C90.9335 17.9188 90.4144 18.4568 90.0227 19.1599C89.631 19.8631 89.4328 20.6937 89.4328 21.647C89.4328 22.6003 89.631 23.4356 90.0227 24.1482C90.4144 24.8608 90.9382 25.4035 91.5801 25.7716C92.2266 26.1397 92.9062 26.3238 93.6282 26.3238C94.3503 26.3238 95.0582 26.135 95.7047 25.7575C96.3512 25.3799 96.8704 24.8325 97.2621 24.1105C97.6538 23.3884 97.852 22.5531 97.852 21.5951C97.852 20.6371 97.6538 19.8159 97.2621 19.1175V19.1269Z" fill="white"/>
  <path d="M106.474 9.99072V28.5941H103.609V9.99072H106.474Z" fill="white"/>
  <path d="M122.845 22.7382H112.259C112.344 23.8425 112.755 24.7345 113.491 25.4046C114.227 26.0747 115.133 26.4098 116.205 26.4098C117.748 26.4098 118.838 25.7633 119.475 24.4749H122.566C122.146 25.7491 121.387 26.7921 120.292 27.6038C119.192 28.4155 117.833 28.8214 116.205 28.8214C114.879 28.8214 113.694 28.524 112.646 27.9294C111.599 27.3348 110.778 26.4948 110.183 25.414C109.588 24.3333 109.291 23.078 109.291 21.6575C109.291 20.237 109.579 18.9817 110.159 17.901C110.74 16.8203 111.552 15.9849 112.599 15.3998C113.647 14.8146 114.85 14.522 116.205 14.522C117.559 14.522 118.678 14.8051 119.702 15.3762C120.726 15.9472 121.519 16.7447 122.09 17.7783C122.661 18.8071 122.944 19.9963 122.944 21.3366C122.944 21.8557 122.911 22.3276 122.845 22.7429V22.7382ZM119.952 20.4211C119.933 19.3639 119.56 18.5192 118.819 17.8821C118.083 17.245 117.167 16.9288 116.077 16.9288C115.086 16.9288 114.242 17.245 113.538 17.8726C112.835 18.5003 112.415 19.3498 112.283 20.4258H119.952V20.4211Z" fill="white"/>
  <path d="M136.045 11.1191V13.4552H128.626V18.6086H134.407V20.9494H128.626V28.5946H125.762V11.1191H136.045Z" fill="white"/>
  <path d="M141.576 9.99072V28.5941H138.712V9.99072H141.576Z" fill="white"/>
  <path d="M147.81 27.9288C146.753 27.3341 145.922 26.4941 145.323 25.4134C144.719 24.3327 144.417 23.0774 144.417 21.6569C144.417 20.2364 144.728 18.9999 145.347 17.9098C145.965 16.8196 146.814 15.9843 147.886 15.3944C148.957 14.8092 150.156 14.5166 151.482 14.5166C152.808 14.5166 154.002 14.8092 155.078 15.3944C156.149 15.9796 156.999 16.8196 157.617 17.9098C158.235 18.9999 158.546 20.2505 158.546 21.6569C158.546 23.0632 158.226 24.3138 157.593 25.404C156.956 26.4941 156.088 27.3341 154.993 27.9288C153.898 28.5234 152.685 28.8207 151.359 28.8207C150.033 28.8207 148.872 28.5234 147.815 27.9288H147.81ZM153.431 25.8051C154.077 25.4511 154.601 24.9226 155.002 24.2194C155.403 23.5162 155.606 22.6621 155.606 21.6569C155.606 20.6517 155.413 19.8022 155.026 19.1037C154.639 18.41 154.129 17.8862 153.492 17.5322C152.855 17.1783 152.166 17.0037 151.43 17.0037C150.694 17.0037 150.009 17.1783 149.382 17.5322C148.754 17.8862 148.254 18.41 147.886 19.1037C147.518 19.7975 147.333 20.6517 147.333 21.6569C147.333 23.1481 147.716 24.2997 148.476 25.1161C149.24 25.9278 150.198 26.3337 151.354 26.3337C152.091 26.3337 152.784 26.159 153.431 25.8051Z" fill="white"/>
  <path d="M179.99 14.7383L175.691 28.5893H172.675L169.886 18.358L167.097 28.5893H164.082L159.759 14.7383H162.675L165.568 25.8758L168.508 14.7383H171.5L174.318 25.8238L177.182 14.7383H180H179.99Z" fill="white"/>
  <path d="M0.847416 13.8886C0.847416 13.8886 4.5426 0.500045 19.3564 0.500045C19.3564 0.500045 35.1565 0.349025 37.7191 17.5083C37.7191 17.5083 38.696 22.3597 34.6421 22.3597H13.193L15.9916 20.0614C15.9916 20.0614 16.992 19.1506 16.2653 18.3011C16.2653 18.3011 15.3073 17.48 14.5333 18.1501L9.61582 22.1898C9.61582 22.1898 7.78002 23.3743 9.61582 24.894L14.623 28.9761C14.623 28.9761 15.5196 29.5849 16.2322 28.7921C16.2322 28.7921 16.9307 27.9568 16.2605 27.3055L13.1789 24.7099H28.5401C28.5401 24.7099 30.4278 24.5778 31.197 26.3239C31.197 26.3239 31.9899 28.07 30.744 29.3395C30.744 29.3395 26.6618 34.8233 19.0024 34.8233C19.0024 34.8233 8.91737 35.3519 4.50485 24.96C4.50485 24.96 3.5138 22.8977 3.5138 18.0321H1.40901C1.40901 18.0321 0.29526 32.7563 15.5527 36.5506C15.5527 36.5506 29.7388 39.6417 35.5104 24.8373H36.9687C36.9687 24.8373 33.7879 37.6832 19.0402 38.2542C19.0402 38.2542 4.65587 38.8772 0.512348 23.5678C0.512348 23.5678 -1.96527 16.3662 3.97629 16.3662H24.6325L21.8387 18.6881C21.8387 18.6881 20.8524 19.5895 21.6877 20.4484C21.6877 20.4484 22.3814 21.2884 23.4386 20.4484L28.2428 16.5173C28.2428 16.5173 29.8898 15.21 28.2428 13.8178L23.2026 9.72622C23.2026 9.72622 22.372 9.15519 21.5886 9.9669C21.5886 9.9669 20.994 10.8305 21.6216 11.4063L24.7458 14.0208H9.42233C9.42233 14.0208 7.21371 14.0774 6.55301 12.2133C6.55301 12.2133 5.72714 10.2595 8.10093 8.31044C8.10093 8.31044 12.6126 3.87904 18.9175 3.87904C18.9175 3.87904 31.5793 3.43071 34.1513 17.0741C34.1513 17.0741 34.3637 18.6504 34.2834 20.623H36.3174C36.3174 20.623 37.6105 8.18774 25.3546 3.11924C25.3546 3.11924 18.9553 0.367907 12.471 3.11924C12.471 3.11924 5.41567 5.37977 2.31039 13.9311L0.847416 13.8981V13.8886Z" fill="url(#paint0_linear_2747_5324)"/>
  <defs>
    <linearGradient id="paint0_linear_2747_5324" x1="0" y1="0.5" x2="45.0459" y2="12.896" gradientUnits="userSpaceOnUse">
      <stop stop-color="#4E5BFF"/>
      <stop offset="1" stop-color="#26D3A6"/>
    </linearGradient>
  </defs>
</svg>
