<svg width="319" height="48" viewBox="0 0 319 48" fill="none" xmlns="http://www.w3.org/2000/svg">
<path d="M1.28381 15.302V9.26H11.8098V37H5.04581V15.302H1.28381Z" fill="#26D3A6"/>
<path d="M31.56 10.59V27.424C31.56 29.4253 32.0793 30.9327 33.118 31.946C34.182 32.9593 35.6514 33.466 37.526 33.466C39.426 33.466 40.8953 32.9593 41.934 31.946C42.998 30.9327 43.53 29.4253 43.53 27.424V10.59H47.862V27.348C47.862 29.5013 47.3934 31.3253 46.456 32.82C45.5187 34.3147 44.2647 35.4293 42.694 36.164C41.1234 36.8987 39.388 37.266 37.488 37.266C35.588 37.266 33.8527 36.8987 32.282 36.164C30.7367 35.4293 29.508 34.3147 28.596 32.82C27.684 31.3253 27.228 29.5013 27.228 27.348V10.59H31.56ZM62.2043 37.266C60.431 37.266 58.835 36.962 57.4163 36.354C55.9977 35.7207 54.883 34.834 54.0723 33.694C53.2617 32.554 52.8563 31.224 52.8563 29.704H57.4923C57.5937 30.844 58.037 31.7813 58.8223 32.516C59.633 33.2507 60.7603 33.618 62.2043 33.618C63.699 33.618 64.8643 33.2633 65.7003 32.554C66.5363 31.8193 66.9543 30.882 66.9543 29.742C66.9543 28.8553 66.6883 28.1333 66.1563 27.576C65.6497 27.0187 65.0037 26.588 64.2183 26.284C63.4583 25.98 62.3943 25.6507 61.0263 25.296C59.3037 24.84 57.8977 24.384 56.8083 23.928C55.7443 23.4467 54.8323 22.712 54.0723 21.724C53.3123 20.736 52.9323 19.4187 52.9323 17.772C52.9323 16.252 53.3123 14.922 54.0723 13.782C54.8323 12.642 55.8963 11.768 57.2643 11.16C58.6323 10.552 60.2157 10.248 62.0143 10.248C64.573 10.248 66.663 10.894 68.2843 12.186C69.931 13.4527 70.843 15.2007 71.0203 17.43H66.2323C66.1563 16.4673 65.7003 15.644 64.8643 14.96C64.0283 14.276 62.9263 13.934 61.5583 13.934C60.317 13.934 59.3037 14.2507 58.5183 14.884C57.733 15.5173 57.3403 16.4293 57.3403 17.62C57.3403 18.4307 57.581 19.102 58.0623 19.634C58.569 20.1407 59.2023 20.546 59.9623 20.85C60.7223 21.154 61.761 21.4833 63.0783 21.838C64.8263 22.3193 66.245 22.8007 67.3343 23.282C68.449 23.7633 69.3863 24.5107 70.1463 25.524C70.9317 26.512 71.3243 27.842 71.3243 29.514C71.3243 30.8567 70.957 32.1233 70.2223 33.314C69.513 34.5047 68.4617 35.4673 67.0683 36.202C65.7003 36.9113 64.079 37.266 62.2043 37.266ZM85.0619 10.59C87.8739 10.59 90.3313 11.1347 92.4339 12.224C94.5619 13.288 96.1959 14.8333 97.3359 16.86C98.5013 18.8613 99.0839 21.2047 99.0839 23.89C99.0839 26.5753 98.5013 28.906 97.3359 30.882C96.1959 32.858 94.5619 34.378 92.4339 35.442C90.3313 36.4807 87.8739 37 85.0619 37H76.4359V10.59H85.0619ZM85.0619 33.466C88.1526 33.466 90.5213 32.63 92.1679 30.958C93.8146 29.286 94.6379 26.93 94.6379 23.89C94.6379 20.8247 93.8146 18.4307 92.1679 16.708C90.5213 14.9853 88.1526 14.124 85.0619 14.124H80.7679V33.466H85.0619ZM120.439 10.59V14.124H113.409V37H109.077V14.124H102.009V10.59H120.439Z" fill="white"/>
<path d="M134.258 27.4008H164.603L162.199 32.6328" stroke="white" stroke-width="4" stroke-linecap="round"/>
<path d="M167.742 20.5992L137.397 20.5992L139.801 15.3672" stroke="white" stroke-width="4" stroke-linecap="round"/>
<path d="M180.768 15.302V9.26H191.294V37H184.53V15.302H180.768Z" fill="#26D3A6"/>
<path d="M241.14 10.59L233.312 37H228.41L222.862 17.012L216.972 37L212.108 37.038L204.622 10.59H209.22L214.692 32.098L220.62 10.59H225.484L230.994 31.984L236.504 10.59H241.14ZM249.007 10.59V27.424C249.007 29.4253 249.527 30.9327 250.565 31.946C251.629 32.9593 253.099 33.466 254.973 33.466C256.873 33.466 258.343 32.9593 259.381 31.946C260.445 30.9327 260.977 29.4253 260.977 27.424V10.59H265.309V27.348C265.309 29.5013 264.841 31.3253 263.903 32.82C262.966 34.3147 261.712 35.4293 260.141 36.164C258.571 36.8987 256.835 37.266 254.935 37.266C253.035 37.266 251.3 36.8987 249.729 36.164C248.184 35.4293 246.955 34.3147 246.043 32.82C245.131 31.3253 244.675 29.5013 244.675 27.348V10.59H249.007ZM279.652 37.266C277.878 37.266 276.282 36.962 274.864 36.354C273.445 35.7207 272.33 34.834 271.52 33.694C270.709 32.554 270.304 31.224 270.304 29.704H274.94C275.041 30.844 275.484 31.7813 276.27 32.516C277.08 33.2507 278.208 33.618 279.652 33.618C281.146 33.618 282.312 33.2633 283.148 32.554C283.984 31.8193 284.402 30.882 284.402 29.742C284.402 28.8553 284.136 28.1333 283.604 27.576C283.097 27.0187 282.451 26.588 281.666 26.284C280.906 25.98 279.842 25.6507 278.474 25.296C276.751 24.84 275.345 24.384 274.256 23.928C273.192 23.4467 272.28 22.712 271.52 21.724C270.76 20.736 270.38 19.4187 270.38 17.772C270.38 16.252 270.76 14.922 271.52 13.782C272.28 12.642 273.344 11.768 274.712 11.16C276.08 10.552 277.663 10.248 279.462 10.248C282.02 10.248 284.11 10.894 285.732 12.186C287.378 13.4527 288.29 15.2007 288.468 17.43H283.68C283.604 16.4673 283.148 15.644 282.312 14.96C281.476 14.276 280.374 13.934 279.006 13.934C277.764 13.934 276.751 14.2507 275.966 14.884C275.18 15.5173 274.788 16.4293 274.788 17.62C274.788 18.4307 275.028 19.102 275.51 19.634C276.016 20.1407 276.65 20.546 277.41 20.85C278.17 21.154 279.208 21.4833 280.526 21.838C282.274 22.3193 283.692 22.8007 284.782 23.282C285.896 23.7633 286.834 24.5107 287.594 25.524C288.379 26.512 288.772 27.842 288.772 29.514C288.772 30.8567 288.404 32.1233 287.67 33.314C286.96 34.5047 285.909 35.4673 284.516 36.202C283.148 36.9113 281.526 37.266 279.652 37.266ZM302.509 10.59C305.321 10.59 307.779 11.1347 309.881 12.224C312.009 13.288 313.643 14.8333 314.783 16.86C315.949 18.8613 316.531 21.2047 316.531 23.89C316.531 26.5753 315.949 28.906 314.783 30.882C313.643 32.858 312.009 34.378 309.881 35.442C307.779 36.4807 305.321 37 302.509 37H293.883V10.59H302.509ZM302.509 33.466C305.6 33.466 307.969 32.63 309.615 30.958C311.262 29.286 312.085 26.93 312.085 23.89C312.085 20.8247 311.262 18.4307 309.615 16.708C307.969 14.9853 305.6 14.124 302.509 14.124H298.215V33.466H302.509Z" fill="white"/>
</svg>