<svg width="603" height="64" viewBox="0 0 603 64" fill="none" xmlns="http://www.w3.org/2000/svg">
<path d="M1.998 15.746V3.98H22.496V58H9.324V15.746H1.998Z" fill="#26D3A6"/>
<path d="M60.9569 6.57V39.352C60.9569 43.2493 61.9683 46.1847 63.9909 48.158C66.0629 50.1313 68.9243 51.118 72.5749 51.118C76.2749 51.118 79.1363 50.1313 81.1589 48.158C83.2309 46.1847 84.2669 43.2493 84.2669 39.352V6.57H92.7029V39.204C92.7029 43.3973 91.7903 46.9493 89.9649 49.86C88.1396 52.7707 85.6976 54.9413 82.6389 56.372C79.5803 57.8027 76.2009 58.518 72.5009 58.518C68.8009 58.518 65.4216 57.8027 62.3629 56.372C59.3536 54.9413 56.9609 52.7707 55.1849 49.86C53.4089 46.9493 52.5209 43.3973 52.5209 39.204V6.57H60.9569ZM120.633 58.518C117.179 58.518 114.071 57.926 111.309 56.742C108.546 55.5087 106.375 53.782 104.797 51.562C103.218 49.342 102.429 46.752 102.429 43.792H111.457C111.654 46.012 112.517 47.8373 114.047 49.268C115.625 50.6987 117.821 51.414 120.633 51.414C123.543 51.414 125.813 50.7233 127.441 49.342C129.069 47.9113 129.883 46.086 129.883 43.866C129.883 42.1393 129.365 40.7333 128.329 39.648C127.342 38.5627 126.084 37.724 124.555 37.132C123.075 36.54 121.003 35.8987 118.339 35.208C114.984 34.32 112.246 33.432 110.125 32.544C108.053 31.6067 106.277 30.176 104.797 28.252C103.317 26.328 102.577 23.7627 102.577 20.556C102.577 17.596 103.317 15.006 104.797 12.786C106.277 10.566 108.349 8.864 111.013 7.68C113.677 6.496 116.76 5.904 120.263 5.904C125.245 5.904 129.315 7.162 132.473 9.678C135.679 12.1447 137.455 15.5487 137.801 19.89H128.477C128.329 18.0153 127.441 16.412 125.813 15.08C124.185 13.748 122.039 13.082 119.375 13.082C116.957 13.082 114.984 13.6987 113.455 14.932C111.925 16.1653 111.161 17.9413 111.161 20.26C111.161 21.8387 111.629 23.146 112.567 24.182C113.553 25.1687 114.787 25.958 116.267 26.55C117.747 27.142 119.769 27.7833 122.335 28.474C125.739 29.4113 128.501 30.3487 130.623 31.286C132.793 32.2233 134.619 33.6787 136.099 35.652C137.628 37.576 138.393 40.166 138.393 43.422C138.393 46.0367 137.677 48.5033 136.247 50.822C134.865 53.1407 132.818 55.0153 130.105 56.446C127.441 57.8273 124.283 58.518 120.633 58.518ZM165.145 6.57C170.621 6.57 175.406 7.63066 179.501 9.752C183.645 11.824 186.827 14.8333 189.047 18.78C191.316 22.6773 192.451 27.2407 192.451 32.47C192.451 37.6993 191.316 42.238 189.047 46.086C186.827 49.934 183.645 52.894 179.501 54.966C175.406 56.9887 170.621 58 165.145 58H148.347V6.57H165.145ZM165.145 51.118C171.164 51.118 175.776 49.49 178.983 46.234C182.19 42.978 183.793 38.39 183.793 32.47C183.793 26.5007 182.19 21.8387 178.983 18.484C175.776 15.1293 171.164 13.452 165.145 13.452H156.783V51.118H165.145ZM234.038 6.57V13.452H220.348V58H211.912V13.452H198.148V6.57H234.038Z" fill="white"/>
<path d="M255 38.5H313L308.404 48.5" stroke="white" stroke-width="6" stroke-linecap="round"/>
<path d="M319 25.5L261 25.5L265.596 15.5" stroke="white" stroke-width="6" stroke-linecap="round"/>
<path d="M337.998 15.746V3.98H358.496V58H345.324V15.746H337.998Z" fill="#26D3A6"/>
<path d="M455.565 6.57L440.321 58H430.775L419.971 19.076L408.501 58L399.029 58.074L384.451 6.57H393.405L404.061 48.454L415.605 6.57H425.077L435.807 48.232L446.537 6.57H455.565ZM470.885 6.57V39.352C470.885 43.2493 471.896 46.1847 473.919 48.158C475.991 50.1313 478.852 51.118 482.503 51.118C486.203 51.118 489.064 50.1313 491.087 48.158C493.159 46.1847 494.195 43.2493 494.195 39.352V6.57H502.631V39.204C502.631 43.3973 501.718 46.9493 499.893 49.86C498.067 52.7707 495.625 54.9413 492.567 56.372C489.508 57.8027 486.129 58.518 482.429 58.518C478.729 58.518 475.349 57.8027 472.291 56.372C469.281 54.9413 466.889 52.7707 465.113 49.86C463.337 46.9493 462.449 43.3973 462.449 39.204V6.57H470.885ZM530.56 58.518C527.107 58.518 523.999 57.926 521.236 56.742C518.474 55.5087 516.303 53.782 514.724 51.562C513.146 49.342 512.356 46.752 512.356 43.792H521.384C521.582 46.012 522.445 47.8373 523.974 49.268C525.553 50.6987 527.748 51.414 530.56 51.414C533.471 51.414 535.74 50.7233 537.368 49.342C538.996 47.9113 539.81 46.086 539.81 43.866C539.81 42.1393 539.292 40.7333 538.256 39.648C537.27 38.5627 536.012 37.724 534.482 37.132C533.002 36.54 530.93 35.8987 528.266 35.208C524.912 34.32 522.174 33.432 520.052 32.544C517.98 31.6067 516.204 30.176 514.724 28.252C513.244 26.328 512.504 23.7627 512.504 20.556C512.504 17.596 513.244 15.006 514.724 12.786C516.204 10.566 518.276 8.864 520.94 7.68C523.604 6.496 526.688 5.904 530.19 5.904C535.173 5.904 539.243 7.162 542.4 9.678C545.607 12.1447 547.383 15.5487 547.728 19.89H538.404C538.256 18.0153 537.368 16.412 535.74 15.08C534.112 13.748 531.966 13.082 529.302 13.082C526.885 13.082 524.912 13.6987 523.382 14.932C521.853 16.1653 521.088 17.9413 521.088 20.26C521.088 21.8387 521.557 23.146 522.494 24.182C523.481 25.1687 524.714 25.958 526.194 26.55C527.674 27.142 529.697 27.7833 532.262 28.474C535.666 29.4113 538.429 30.3487 540.55 31.286C542.721 32.2233 544.546 33.6787 546.026 35.652C547.556 37.576 548.32 40.166 548.32 43.422C548.32 46.0367 547.605 48.5033 546.174 50.822C544.793 53.1407 542.746 55.0153 540.032 56.446C537.368 57.8273 534.211 58.518 530.56 58.518ZM575.073 6.57C580.549 6.57 585.334 7.63066 589.429 9.752C593.573 11.824 596.755 14.8333 598.975 18.78C601.244 22.6773 602.379 27.2407 602.379 32.47C602.379 37.6993 601.244 42.238 598.975 46.086C596.755 49.934 593.573 52.894 589.429 54.966C585.334 56.9887 580.549 58 575.073 58H558.275V6.57H575.073ZM575.073 51.118C581.091 51.118 585.704 49.49 588.911 46.234C592.117 42.978 593.721 38.39 593.721 32.47C593.721 26.5007 592.117 21.8387 588.911 18.484C585.704 15.1293 581.091 13.452 575.073 13.452H566.711V51.118H575.073Z" fill="white"/>
</svg>
