<svg xmlns="http://www.w3.org/2000/svg" width="89" height="95" viewBox="0 0 89 95" fill="none">
<path d="M38.945 80.1374C38.945 80.1374 37.9932 43.9597 0 40.408C0 40.408 35.4022 38.7776 38.945 0C38.945 0 41.1924 38.1695 78.1368 40.408C78.1368 40.408 41.3422 42.2852 38.945 80.1374Z" fill="url(#paint0_linear_2653_9946)"/>
<path d="M69.1227 94.2995C69.1227 94.2995 68.661 76.3957 50.2344 74.638C50.2344 74.638 67.4044 73.8311 69.1227 54.6406C69.1227 54.6406 70.2126 73.5302 88.1306 74.638C88.1306 74.638 70.2853 75.567 69.1227 94.2995Z" fill="url(#paint1_linear_2653_9946)"/>
<defs>
<linearGradient id="paint0_linear_2653_9946" x1="28.2019" y1="1.76262" x2="65.0674" y2="45.9045" gradientUnits="userSpaceOnUse">
<stop stop-color="#4E5BFF"/>
<stop offset="1" stop-color="#26D3A6"/>
</linearGradient>
<linearGradient id="paint1_linear_2653_9946" x1="63.9122" y1="55.5129" x2="82.2186" y2="76.9946" gradientUnits="userSpaceOnUse">
<stop stop-color="#4E5BFF"/>
<stop offset="1" stop-color="#26D3A6"/>
</linearGradient>
</defs>
</svg>
