<svg width="287" height="20" viewBox="0 0 287 20" fill="none" xmlns="http://www.w3.org/2000/svg">
<path d="M10.2667 0H21L10.7333 20H0L10.2667 0Z" fill="url(#paint0_linear_363_75383)"/>
<path d="M24.2667 0H35L24.7333 20H14L24.2667 0Z" fill="url(#paint1_linear_363_75383)"/>
<path d="M38.2667 0H49L38.7333 20H28L38.2667 0Z" fill="url(#paint2_linear_363_75383)"/>
<path d="M52.2667 0H63L52.7333 20H42L52.2667 0Z" fill="url(#paint3_linear_363_75383)"/>
<path d="M66.2667 0H77L66.7333 20H56L66.2667 0Z" fill="url(#paint4_linear_363_75383)"/>
<path d="M80.2667 0H91L80.7333 20H70L80.2667 0Z" fill="url(#paint5_linear_363_75383)"/>
<path d="M94.2667 0H105L94.7333 20H84L94.2667 0Z" fill="url(#paint6_linear_363_75383)"/>
<path d="M108.267 0H119L108.733 20H98L108.267 0Z" fill="url(#paint7_linear_363_75383)"/>
<path d="M122.267 0H133L122.733 20H112L122.267 0Z" fill="url(#paint8_linear_363_75383)"/>
<path d="M136.267 0H147L136.733 20H126L136.267 0Z" fill="url(#paint9_linear_363_75383)"/>
<path d="M150.267 0H161L150.733 20H140L150.267 0Z" fill="url(#paint10_linear_363_75383)"/>
<path d="M164.267 0H175L164.733 20H154L164.267 0Z" fill="url(#paint11_linear_363_75383)"/>
<path d="M178.267 0H189L178.733 20H168L178.267 0Z" fill="url(#paint12_linear_363_75383)"/>
<path d="M192.267 0H203L192.733 20H182L192.267 0Z" fill="url(#paint13_linear_363_75383)"/>
<path d="M206.267 0H217L206.733 20H196L206.267 0Z" fill="url(#paint14_linear_363_75383)"/>
<path d="M220.267 0H231L220.733 20H210L220.267 0Z" fill="url(#paint15_linear_363_75383)"/>
<path d="M234.267 0H245L234.733 20H224L234.267 0Z" fill="url(#paint16_linear_363_75383)"/>
<path d="M248.267 0H259L248.733 20H238L248.267 0Z" fill="url(#paint17_linear_363_75383)"/>
<path d="M262.267 0H273L262.733 20H252L262.267 0Z" fill="url(#paint18_linear_363_75383)"/>
<path d="M276.267 0H287L276.733 20H266L276.267 0Z" fill="url(#paint19_linear_363_75383)"/>
<defs>
<linearGradient id="paint0_linear_363_75383" x1="0" y1="10" x2="21" y2="10" gradientUnits="userSpaceOnUse">
<stop stop-color="#4E5BFF"/>
<stop offset="1" stop-color="#26D3A6"/>
</linearGradient>
<linearGradient id="paint1_linear_363_75383" x1="14" y1="10" x2="35" y2="10" gradientUnits="userSpaceOnUse">
<stop stop-color="#4E5BFF"/>
<stop offset="1" stop-color="#26D3A6"/>
</linearGradient>
<linearGradient id="paint2_linear_363_75383" x1="28" y1="10" x2="49" y2="10" gradientUnits="userSpaceOnUse">
<stop stop-color="#4E5BFF"/>
<stop offset="1" stop-color="#26D3A6"/>
</linearGradient>
<linearGradient id="paint3_linear_363_75383" x1="42" y1="10" x2="63" y2="10" gradientUnits="userSpaceOnUse">
<stop stop-color="#4E5BFF"/>
<stop offset="1" stop-color="#26D3A6"/>
</linearGradient>
<linearGradient id="paint4_linear_363_75383" x1="56" y1="10" x2="77" y2="10" gradientUnits="userSpaceOnUse">
<stop stop-color="#4E5BFF"/>
<stop offset="1" stop-color="#26D3A6"/>
</linearGradient>
<linearGradient id="paint5_linear_363_75383" x1="70" y1="10" x2="91" y2="10" gradientUnits="userSpaceOnUse">
<stop stop-color="#4E5BFF"/>
<stop offset="1" stop-color="#26D3A6"/>
</linearGradient>
<linearGradient id="paint6_linear_363_75383" x1="84" y1="10" x2="105" y2="10" gradientUnits="userSpaceOnUse">
<stop stop-color="#4E5BFF"/>
<stop offset="1" stop-color="#26D3A6"/>
</linearGradient>
<linearGradient id="paint7_linear_363_75383" x1="98" y1="10" x2="119" y2="10" gradientUnits="userSpaceOnUse">
<stop stop-color="#4E5BFF"/>
<stop offset="1" stop-color="#26D3A6"/>
</linearGradient>
<linearGradient id="paint8_linear_363_75383" x1="112" y1="10" x2="133" y2="10" gradientUnits="userSpaceOnUse">
<stop stop-color="#4E5BFF"/>
<stop offset="1" stop-color="#26D3A6"/>
</linearGradient>
<linearGradient id="paint9_linear_363_75383" x1="126" y1="10" x2="147" y2="10" gradientUnits="userSpaceOnUse">
<stop stop-color="#4E5BFF"/>
<stop offset="1" stop-color="#26D3A6"/>
</linearGradient>
<linearGradient id="paint10_linear_363_75383" x1="140" y1="10" x2="161" y2="10" gradientUnits="userSpaceOnUse">
<stop stop-color="#4E5BFF"/>
<stop offset="1" stop-color="#26D3A6"/>
</linearGradient>
<linearGradient id="paint11_linear_363_75383" x1="154" y1="10" x2="175" y2="10" gradientUnits="userSpaceOnUse">
<stop stop-color="#4E5BFF"/>
<stop offset="1" stop-color="#26D3A6"/>
</linearGradient>
<linearGradient id="paint12_linear_363_75383" x1="168" y1="10" x2="189" y2="10" gradientUnits="userSpaceOnUse">
<stop stop-color="#4E5BFF"/>
<stop offset="1" stop-color="#26D3A6"/>
</linearGradient>
<linearGradient id="paint13_linear_363_75383" x1="182" y1="10" x2="203" y2="10" gradientUnits="userSpaceOnUse">
<stop stop-color="#4E5BFF"/>
<stop offset="1" stop-color="#26D3A6"/>
</linearGradient>
<linearGradient id="paint14_linear_363_75383" x1="196" y1="10" x2="217" y2="10" gradientUnits="userSpaceOnUse">
<stop stop-color="#4E5BFF"/>
<stop offset="1" stop-color="#26D3A6"/>
</linearGradient>
<linearGradient id="paint15_linear_363_75383" x1="210" y1="10" x2="231" y2="10" gradientUnits="userSpaceOnUse">
<stop stop-color="#4E5BFF"/>
<stop offset="1" stop-color="#26D3A6"/>
</linearGradient>
<linearGradient id="paint16_linear_363_75383" x1="224" y1="10" x2="245" y2="10" gradientUnits="userSpaceOnUse">
<stop stop-color="#4E5BFF"/>
<stop offset="1" stop-color="#26D3A6"/>
</linearGradient>
<linearGradient id="paint17_linear_363_75383" x1="238" y1="10" x2="259" y2="10" gradientUnits="userSpaceOnUse">
<stop stop-color="#4E5BFF"/>
<stop offset="1" stop-color="#26D3A6"/>
</linearGradient>
<linearGradient id="paint18_linear_363_75383" x1="252" y1="10" x2="273" y2="10" gradientUnits="userSpaceOnUse">
<stop stop-color="#4E5BFF"/>
<stop offset="1" stop-color="#26D3A6"/>
</linearGradient>
<linearGradient id="paint19_linear_363_75383" x1="266" y1="10" x2="287" y2="10" gradientUnits="userSpaceOnUse">
<stop stop-color="#4E5BFF"/>
<stop offset="1" stop-color="#26D3A6"/>
</linearGradient>
</defs>
</svg>
