<svg width="1em" height="1em" viewBox="0 0 28 28" fill="none" xmlns="http://www.w3.org/2000/svg">
<path d="M13.7143 0.5C6.14034 0.5 0 6.64034 0 14.2143C0 21.7882 6.14034 27.9286 13.7143 27.9286C21.2882 27.9286 27.4286 21.7882 27.4286 14.2143C27.4286 6.64034 21.2882 0.5 13.7143 0.5ZM22.0782 10.1302C21.9493 10.1613 21.8249 10.2079 21.707 10.2691C21.4391 10.4163 21.2023 10.6138 21.0085 10.8497C20.9198 10.9677 20.8366 11.0893 20.7598 11.2154L20.5312 11.6817L16.8238 20.2221C16.6181 20.6765 16.5403 20.8456 16.1838 20.8712C15.7833 20.9014 15.4798 20.6792 15.2896 20.2221L13.8505 17.1555L12.3986 20.2175C12.1893 20.6719 11.8729 20.8355 11.5173 20.8621C11.1159 20.8922 10.7264 20.6792 10.5362 20.2221L6.51337 11.6488C6.20069 10.9942 6.04251 10.6522 5.90354 10.4026C5.73531 10.1009 5.76823 10.0845 5.40251 10.0643C5.40069 10.0643 5.39886 10.0643 5.39703 10.0643C5.27451 10.0717 5.16937 9.9784 5.16114 9.8568C5.15383 9.7544 5.22514 9.66297 5.32571 9.64377C5.76823 9.60354 7.34354 9.60354 7.47611 9.60354H8.96457C8.98194 9.60171 8.9984 9.60263 9.01577 9.60537C9.10171 9.62274 9.15749 9.70777 9.1392 9.79371C9.14194 9.90983 9.0496 10.0049 8.9344 10.0077C8.76069 10.0077 8.59703 9.97749 8.50834 10.2042C8.41966 10.431 8.66834 10.964 8.91337 11.4605L12.1591 18.2829L12.2798 18.4803L13.4062 16.2093L11.2667 11.6488C10.955 10.9942 10.7968 10.6522 10.6578 10.4026C10.4887 10.1009 10.5225 10.0845 10.1568 10.0643C10.155 10.0643 10.1531 10.0643 10.1513 10.0643C10.0288 10.0717 9.92366 9.9784 9.91543 9.8568C9.90811 9.7544 9.97943 9.66297 10.08 9.64377C10.5225 9.60354 12.0978 9.60354 12.2304 9.60354H13.7106C13.7271 9.60171 13.7445 9.60263 13.7609 9.60537C13.8478 9.62274 13.9035 9.70686 13.8862 9.79371C13.8889 9.90891 13.7966 10.0049 13.6814 10.0077C13.5077 10.0077 13.344 9.97749 13.2553 10.2042C13.1666 10.431 13.4144 10.964 13.6603 11.4605L14.6706 13.6611L15.6873 11.6122C15.9488 11.1542 16.1262 10.4968 15.9488 10.2682C15.7998 10.0808 15.445 10.1475 14.8855 10.1293C14.7776 10.1219 14.6926 9.99211 14.6862 9.85497C14.6862 9.74069 14.7666 9.64194 14.8782 9.62C16.1207 9.59989 16.3346 9.59989 16.5339 9.59989C16.64 9.59989 16.8338 9.59989 17.8715 9.62C17.9776 9.64834 18.0517 9.74343 18.0544 9.85314C18.0462 9.97017 17.9767 10.0744 17.8715 10.1274C17.7445 10.1585 17.6219 10.2051 17.5058 10.2664C17.3806 10.3286 17.2626 10.4054 17.1557 10.495C16.9527 10.7217 16.7854 10.9768 16.6574 11.2529C16.6181 11.3352 16.5614 11.4477 16.4489 11.6771L15.083 14.5581L16.7936 18.2829L19.9415 11.4138C20.2011 10.9558 20.3547 10.4127 20.1472 10.2682C19.9397 10.1238 19.5054 10.2061 19.0839 10.1293C18.9623 10.0945 18.88 9.98114 18.8846 9.85497C18.8864 9.73977 18.9696 9.64194 19.0839 9.62274C20.3264 9.60263 20.5403 9.60263 20.7397 9.60263C20.8457 9.60263 21.0405 9.60263 22.0782 9.62274C22.1842 9.652 22.2583 9.74617 22.261 9.85589C22.2519 9.97291 22.1824 10.0771 22.0782 10.1302Z" fill="white"/>
</svg>