<svg width="167" height="72" viewBox="0 0 167 72" fill="none" xmlns="http://www.w3.org/2000/svg">
<path fill-rule="evenodd" clip-rule="evenodd" d="M164.927 3.67323C167.741 6.51977 167.683 11.0772 164.796 13.8526L141.758 36L164.796 58.1474C167.683 60.9227 167.741 65.4802 164.927 68.3268C162.112 71.1733 157.49 71.231 154.603 68.4556L126.204 41.1542C124.795 39.7994 124 37.9408 124 36.0001C124 34.0593 124.795 32.2008 126.204 30.8459L154.603 3.54438C157.49 0.768996 162.112 0.826681 164.927 3.67323Z" fill="url(#paint0_linear_1109_158495)"/>
<path fill-rule="evenodd" clip-rule="evenodd" d="M134.755 2.84712C137.792 5.93771 137.741 10.9021 134.643 13.9305L112.061 36L134.643 58.0695C137.741 61.0979 137.792 66.0623 134.755 69.1529C131.723 72.2383 126.761 72.2881 123.667 69.2647L95.3574 41.5977C93.8508 40.1252 93 38.108 93 36.0001C93 33.8922 93.8508 31.8749 95.3574 30.4025L123.667 2.73531C126.761 -0.288099 131.723 -0.238309 134.755 2.84712ZM131.593 10.8007C132.961 9.46385 132.983 7.27842 131.642 5.91463C130.297 4.54567 128.09 4.52325 126.717 5.86515L98.4071 33.5323C97.7405 34.1838 97.3666 35.0734 97.3666 36.0001C97.3666 36.9267 97.7405 37.8163 98.4071 38.4678L126.717 66.1349C128.09 67.4768 130.297 67.4543 131.642 66.0854C132.983 64.7216 132.961 62.5361 131.593 61.1993L107.41 37.565C106.989 37.1535 106.751 36.5892 106.751 36.0001C106.751 35.4109 106.989 34.8466 107.41 34.4351L131.593 10.8007Z" fill="url(#paint1_linear_1109_158495)"/>
<path fill-rule="evenodd" clip-rule="evenodd" d="M101.825 3.54272C104.673 6.31717 104.732 10.8746 101.957 13.7221L80.2497 36L101.957 58.2779C104.732 61.1254 104.673 65.6828 101.825 68.4573C98.9774 71.2317 94.4198 71.1725 91.6452 68.3251L65.0428 41.0236C62.3191 38.2283 62.3191 33.7718 65.0428 30.9765L91.6452 3.67493C94.4198 0.827468 98.9774 0.768276 101.825 3.54272Z" fill="url(#paint2_linear_1109_158495)"/>
<path fill-rule="evenodd" clip-rule="evenodd" d="M71.7547 2.84712C74.7918 5.93771 74.7414 10.9021 71.6426 13.9305L49.0606 36L71.6425 58.0695C74.7413 61.0979 74.7918 66.0623 71.7547 69.1529C68.7226 72.2383 63.7606 72.2881 60.667 69.2647L32.3574 41.5977C30.8508 40.1252 30 38.108 30 36.0001C30 33.8922 30.8508 31.8749 32.3574 30.4025L60.667 2.73531C63.7606 -0.288099 68.7226 -0.238309 71.7547 2.84712ZM68.5929 10.8007C69.9607 9.46385 69.9827 7.27842 68.6425 5.91463C67.2972 4.54567 65.0897 4.52325 63.7167 5.86515L35.4071 33.5323C34.7405 34.1838 34.3666 35.0734 34.3666 36.0001C34.3666 36.9267 34.7405 37.8163 35.4071 38.4678L63.7167 66.1349C65.0897 67.4768 67.2972 67.4543 68.6425 66.0854C69.9827 64.7216 69.9607 62.5361 68.5929 61.1993L44.4096 37.565C43.9886 37.1535 43.7512 36.5892 43.7512 36.0001C43.7512 35.4109 43.9886 34.8466 44.4096 34.4351L68.5929 10.8007Z" fill="url(#paint3_linear_1109_158495)"/>
<path fill-rule="evenodd" clip-rule="evenodd" d="M40.9266 3.67323C43.7414 6.51977 43.6829 11.0772 40.7959 13.8526L17.7585 36L40.7959 58.1474C43.6829 60.9227 43.7414 65.4802 40.9266 68.3268C38.1119 71.1733 33.4897 71.231 30.6028 68.4556L2.20407 41.1542C0.794771 39.7994 6.03652e-06 37.9408 2.30665e-06 36.0001C-1.42321e-06 34.0593 0.794764 32.2008 2.20405 30.8459L30.6028 3.54438C33.4897 0.768996 38.1119 0.826681 40.9266 3.67323Z" fill="url(#paint4_linear_1109_158495)"/>
<defs>
<linearGradient id="paint0_linear_1109_158495" x1="145.5" y1="8.69851" x2="145.5" y2="63.3015" gradientUnits="userSpaceOnUse">
<stop stop-color="#4E5BFF"/>
<stop offset="1" stop-color="#26D3A6"/>
</linearGradient>
<linearGradient id="paint1_linear_1109_158495" x1="128.447" y1="69.3134" x2="128.447" y2="2.68657" gradientUnits="userSpaceOnUse">
<stop stop-color="#4E5BFF"/>
<stop offset="1" stop-color="#26D3A6"/>
</linearGradient>
<linearGradient id="paint2_linear_1109_158495" x1="83.5" y1="8.69851" x2="83.5" y2="63.3015" gradientUnits="userSpaceOnUse">
<stop stop-color="#4E5BFF"/>
<stop offset="1" stop-color="#26D3A6"/>
</linearGradient>
<linearGradient id="paint3_linear_1109_158495" x1="65.447" y1="69.3134" x2="65.447" y2="2.68657" gradientUnits="userSpaceOnUse">
<stop stop-color="#4E5BFF"/>
<stop offset="1" stop-color="#26D3A6"/>
</linearGradient>
<linearGradient id="paint4_linear_1109_158495" x1="21.5" y1="8.69851" x2="21.5" y2="63.3015" gradientUnits="userSpaceOnUse">
<stop stop-color="#4E5BFF"/>
<stop offset="1" stop-color="#26D3A6"/>
</linearGradient>
</defs>
</svg>
