<svg width="4.15em" height="1em" viewBox="0 0 233 56" fill="none" xmlns="http://www.w3.org/2000/svg">
<path d="M-0.00199995 12.746V0.979999H20.496V55H7.324V12.746H-0.00199995Z" fill="#26D3A6"/>
<path d="M58.9569 3.57V36.352C58.9569 40.2493 59.9683 43.1847 61.9909 45.158C64.0629 47.1313 66.9243 48.118 70.5749 48.118C74.2749 48.118 77.1363 47.1313 79.1589 45.158C81.2309 43.1847 82.2669 40.2493 82.2669 36.352V3.57H90.7029V36.204C90.7029 40.3973 89.7903 43.9493 87.9649 46.86C86.1396 49.7707 83.6976 51.9413 80.6389 53.372C77.5803 54.8027 74.2009 55.518 70.5009 55.518C66.8009 55.518 63.4216 54.8027 60.3629 53.372C57.3536 51.9413 54.9609 49.7707 53.1849 46.86C51.4089 43.9493 50.5209 40.3973 50.5209 36.204V3.57H58.9569ZM118.633 55.518C115.179 55.518 112.071 54.926 109.309 53.742C106.546 52.5087 104.375 50.782 102.797 48.562C101.218 46.342 100.429 43.752 100.429 40.792H109.457C109.654 43.012 110.517 44.8373 112.047 46.268C113.625 47.6987 115.821 48.414 118.633 48.414C121.543 48.414 123.813 47.7233 125.441 46.342C127.069 44.9113 127.883 43.086 127.883 40.866C127.883 39.1393 127.365 37.7333 126.329 36.648C125.342 35.5627 124.084 34.724 122.555 34.132C121.075 33.54 119.003 32.8987 116.339 32.208C112.984 31.32 110.246 30.432 108.125 29.544C106.053 28.6067 104.277 27.176 102.797 25.252C101.317 23.328 100.577 20.7627 100.577 17.556C100.577 14.596 101.317 12.006 102.797 9.786C104.277 7.566 106.349 5.864 109.013 4.68C111.677 3.496 114.76 2.904 118.263 2.904C123.245 2.904 127.315 4.162 130.473 6.678C133.679 9.14466 135.455 12.5487 135.801 16.89H126.477C126.329 15.0153 125.441 13.412 123.813 12.08C122.185 10.748 120.039 10.082 117.375 10.082C114.957 10.082 112.984 10.6987 111.455 11.932C109.925 13.1653 109.161 14.9413 109.161 17.26C109.161 18.8387 109.629 20.146 110.567 21.182C111.553 22.1687 112.787 22.958 114.267 23.55C115.747 24.142 117.769 24.7833 120.335 25.474C123.739 26.4113 126.501 27.3487 128.623 28.286C130.793 29.2233 132.619 30.6787 134.099 32.652C135.628 34.576 136.393 37.166 136.393 40.422C136.393 43.0367 135.677 45.5033 134.247 47.822C132.865 50.1407 130.818 52.0153 128.105 53.446C125.441 54.8273 122.283 55.518 118.633 55.518ZM163.145 3.57C168.621 3.57 173.406 4.63066 177.501 6.752C181.645 8.824 184.827 11.8333 187.047 15.78C189.316 19.6773 190.451 24.2407 190.451 29.47C190.451 34.6993 189.316 39.238 187.047 43.086C184.827 46.934 181.645 49.894 177.501 51.966C173.406 53.9887 168.621 55 163.145 55H146.347V3.57H163.145ZM163.145 48.118C169.164 48.118 173.776 46.49 176.983 43.234C180.19 39.978 181.793 35.39 181.793 29.47C181.793 23.5007 180.19 18.8387 176.983 15.484C173.776 12.1293 169.164 10.452 163.145 10.452H154.783V48.118H163.145ZM232.038 3.57V10.452H218.348V55H209.912V10.452H196.148V3.57H232.038Z" fill="white"/>
</svg>