<svg width="4.73em" height="1em" viewBox="0 0 265 56" fill="none" xmlns="http://www.w3.org/2000/svg">
<path d="M-0.00199995 12.746V0.979999H20.496V55H7.324V12.746H-0.00199995Z" fill="#26D3A6"/>
<path d="M117.565 3.57L102.321 55H92.7749L81.9709 16.076L70.5009 55L61.0289 55.074L46.4509 3.57H55.4049L66.0609 45.454L77.6049 3.57H87.0769L97.8069 45.232L108.537 3.57H117.565ZM132.885 3.57V36.352C132.885 40.2493 133.896 43.1847 135.919 45.158C137.991 47.1313 140.852 48.118 144.503 48.118C148.203 48.118 151.064 47.1313 153.087 45.158C155.159 43.1847 156.195 40.2493 156.195 36.352V3.57H164.631V36.204C164.631 40.3973 163.718 43.9493 161.893 46.86C160.067 49.7707 157.625 51.9413 154.567 53.372C151.508 54.8027 148.129 55.518 144.429 55.518C140.729 55.518 137.349 54.8027 134.291 53.372C131.281 51.9413 128.889 49.7707 127.113 46.86C125.337 43.9493 124.449 40.3973 124.449 36.204V3.57H132.885ZM192.56 55.518C189.107 55.518 185.999 54.926 183.236 53.742C180.474 52.5087 178.303 50.782 176.724 48.562C175.146 46.342 174.356 43.752 174.356 40.792H183.384C183.582 43.012 184.445 44.8373 185.974 46.268C187.553 47.6987 189.748 48.414 192.56 48.414C195.471 48.414 197.74 47.7233 199.368 46.342C200.996 44.9113 201.81 43.086 201.81 40.866C201.81 39.1393 201.292 37.7333 200.256 36.648C199.27 35.5627 198.012 34.724 196.482 34.132C195.002 33.54 192.93 32.8987 190.266 32.208C186.912 31.32 184.174 30.432 182.052 29.544C179.98 28.6067 178.204 27.176 176.724 25.252C175.244 23.328 174.504 20.7627 174.504 17.556C174.504 14.596 175.244 12.006 176.724 9.786C178.204 7.566 180.276 5.864 182.94 4.68C185.604 3.496 188.688 2.904 192.19 2.904C197.173 2.904 201.243 4.162 204.4 6.678C207.607 9.14466 209.383 12.5487 209.728 16.89H200.404C200.256 15.0153 199.368 13.412 197.74 12.08C196.112 10.748 193.966 10.082 191.302 10.082C188.885 10.082 186.912 10.6987 185.382 11.932C183.853 13.1653 183.088 14.9413 183.088 17.26C183.088 18.8387 183.557 20.146 184.494 21.182C185.481 22.1687 186.714 22.958 188.194 23.55C189.674 24.142 191.697 24.7833 194.262 25.474C197.666 26.4113 200.429 27.3487 202.55 28.286C204.721 29.2233 206.546 30.6787 208.026 32.652C209.556 34.576 210.32 37.166 210.32 40.422C210.32 43.0367 209.605 45.5033 208.174 47.822C206.793 50.1407 204.746 52.0153 202.032 53.446C199.368 54.8273 196.211 55.518 192.56 55.518ZM237.073 3.57C242.549 3.57 247.334 4.63066 251.429 6.752C255.573 8.824 258.755 11.8333 260.975 15.78C263.244 19.6773 264.379 24.2407 264.379 29.47C264.379 34.6993 263.244 39.238 260.975 43.086C258.755 46.934 255.573 49.894 251.429 51.966C247.334 53.9887 242.549 55 237.073 55H220.275V3.57H237.073ZM237.073 48.118C243.091 48.118 247.704 46.49 250.911 43.234C254.117 39.978 255.721 35.39 255.721 29.47C255.721 23.5007 254.117 18.8387 250.911 15.484C247.704 12.1293 243.091 10.452 237.073 10.452H228.711V48.118H237.073Z" fill="white"/>
</svg>