<svg width="131" height="10" viewBox="0 0 131 10" fill="none" xmlns="http://www.w3.org/2000/svg">
<path d="M4.66187 0H9.53564L4.87377 9.08447H0L4.66187 0Z" fill="url(#paint0_linear_325_348124)"/>
<path d="M11.019 0H15.8927L11.2309 9.08447H6.35709L11.019 0Z" fill="url(#paint1_linear_325_348124)"/>
<path d="M17.3761 0H22.2498L17.588 9.08447H12.7142L17.3761 0Z" fill="url(#paint2_linear_325_348124)"/>
<path d="M23.7331 0H28.6069L23.9451 9.08447H19.0713L23.7331 0Z" fill="url(#paint3_linear_325_348124)"/>
<path d="M30.0902 0H34.964L30.3021 9.08447H25.4284L30.0902 0Z" fill="url(#paint4_linear_325_348124)"/>
<path d="M36.4473 0H41.3211L36.6592 9.08447H31.7855L36.4473 0Z" fill="url(#paint5_linear_325_348124)"/>
<path d="M42.8044 0H47.6782L43.0163 9.08447H38.1426L42.8044 0Z" fill="url(#paint6_linear_325_348124)"/>
<path d="M49.1615 0H54.0353L49.3734 9.08447H44.4997L49.1615 0Z" fill="url(#paint7_linear_325_348124)"/>
<path d="M55.5186 0H60.3924L55.7305 9.08447H50.8567L55.5186 0Z" fill="url(#paint8_linear_325_348124)"/>
<path d="M61.8757 0H66.7495L62.0876 9.08447H57.2138L61.8757 0Z" fill="url(#paint9_linear_325_348124)"/>
<path d="M68.2328 0H73.1066L68.4447 9.08447H63.5709L68.2328 0Z" fill="url(#paint10_linear_325_348124)"/>
<path d="M74.5899 0H79.4637L74.8018 9.08447H69.928L74.5899 0Z" fill="url(#paint11_linear_325_348124)"/>
<path d="M80.947 0H85.8208L81.1589 9.08447H76.2851L80.947 0Z" fill="url(#paint12_linear_325_348124)"/>
<path d="M87.3041 0H92.1779L87.516 9.08447H82.6422L87.3041 0Z" fill="url(#paint13_linear_325_348124)"/>
<path d="M93.6612 0H98.5349L93.8731 9.08447H88.9993L93.6612 0Z" fill="url(#paint14_linear_325_348124)"/>
<path d="M100.018 0H104.892L100.23 9.08447H95.3564L100.018 0Z" fill="url(#paint15_linear_325_348124)"/>
<path d="M106.375 0H111.249L106.587 9.08447H101.713L106.375 0Z" fill="url(#paint16_linear_325_348124)"/>
<path d="M112.732 0H117.606L112.944 9.08447H108.071L112.732 0Z" fill="url(#paint17_linear_325_348124)"/>
<path d="M119.09 0H123.963L119.301 9.08447H114.428L119.09 0Z" fill="url(#paint18_linear_325_348124)"/>
<path d="M125.447 0H130.32L125.659 9.08447H120.785L125.447 0Z" fill="url(#paint19_linear_325_348124)"/>
<defs>
<linearGradient id="paint0_linear_325_348124" x1="0" y1="4.54224" x2="130.32" y2="4.54224" gradientUnits="userSpaceOnUse">
<stop stop-color="#4E5BFF"/>
<stop offset="1" stop-color="#26D3A6"/>
</linearGradient>
<linearGradient id="paint1_linear_325_348124" x1="0" y1="4.54224" x2="130.32" y2="4.54224" gradientUnits="userSpaceOnUse">
<stop stop-color="#4E5BFF"/>
<stop offset="1" stop-color="#26D3A6"/>
</linearGradient>
<linearGradient id="paint2_linear_325_348124" x1="0" y1="4.54224" x2="130.32" y2="4.54224" gradientUnits="userSpaceOnUse">
<stop stop-color="#4E5BFF"/>
<stop offset="1" stop-color="#26D3A6"/>
</linearGradient>
<linearGradient id="paint3_linear_325_348124" x1="0" y1="4.54224" x2="130.32" y2="4.54224" gradientUnits="userSpaceOnUse">
<stop stop-color="#4E5BFF"/>
<stop offset="1" stop-color="#26D3A6"/>
</linearGradient>
<linearGradient id="paint4_linear_325_348124" x1="0" y1="4.54224" x2="130.32" y2="4.54224" gradientUnits="userSpaceOnUse">
<stop stop-color="#4E5BFF"/>
<stop offset="1" stop-color="#26D3A6"/>
</linearGradient>
<linearGradient id="paint5_linear_325_348124" x1="0" y1="4.54224" x2="130.32" y2="4.54224" gradientUnits="userSpaceOnUse">
<stop stop-color="#4E5BFF"/>
<stop offset="1" stop-color="#26D3A6"/>
</linearGradient>
<linearGradient id="paint6_linear_325_348124" x1="0" y1="4.54224" x2="130.32" y2="4.54224" gradientUnits="userSpaceOnUse">
<stop stop-color="#4E5BFF"/>
<stop offset="1" stop-color="#26D3A6"/>
</linearGradient>
<linearGradient id="paint7_linear_325_348124" x1="0" y1="4.54224" x2="130.32" y2="4.54224" gradientUnits="userSpaceOnUse">
<stop stop-color="#4E5BFF"/>
<stop offset="1" stop-color="#26D3A6"/>
</linearGradient>
<linearGradient id="paint8_linear_325_348124" x1="0" y1="4.54224" x2="130.32" y2="4.54224" gradientUnits="userSpaceOnUse">
<stop stop-color="#4E5BFF"/>
<stop offset="1" stop-color="#26D3A6"/>
</linearGradient>
<linearGradient id="paint9_linear_325_348124" x1="0" y1="4.54224" x2="130.32" y2="4.54224" gradientUnits="userSpaceOnUse">
<stop stop-color="#4E5BFF"/>
<stop offset="1" stop-color="#26D3A6"/>
</linearGradient>
<linearGradient id="paint10_linear_325_348124" x1="0" y1="4.54224" x2="130.32" y2="4.54224" gradientUnits="userSpaceOnUse">
<stop stop-color="#4E5BFF"/>
<stop offset="1" stop-color="#26D3A6"/>
</linearGradient>
<linearGradient id="paint11_linear_325_348124" x1="0" y1="4.54224" x2="130.32" y2="4.54224" gradientUnits="userSpaceOnUse">
<stop stop-color="#4E5BFF"/>
<stop offset="1" stop-color="#26D3A6"/>
</linearGradient>
<linearGradient id="paint12_linear_325_348124" x1="0" y1="4.54224" x2="130.32" y2="4.54224" gradientUnits="userSpaceOnUse">
<stop stop-color="#4E5BFF"/>
<stop offset="1" stop-color="#26D3A6"/>
</linearGradient>
<linearGradient id="paint13_linear_325_348124" x1="0" y1="4.54224" x2="130.32" y2="4.54224" gradientUnits="userSpaceOnUse">
<stop stop-color="#4E5BFF"/>
<stop offset="1" stop-color="#26D3A6"/>
</linearGradient>
<linearGradient id="paint14_linear_325_348124" x1="0" y1="4.54224" x2="130.32" y2="4.54224" gradientUnits="userSpaceOnUse">
<stop stop-color="#4E5BFF"/>
<stop offset="1" stop-color="#26D3A6"/>
</linearGradient>
<linearGradient id="paint15_linear_325_348124" x1="0" y1="4.54224" x2="130.32" y2="4.54224" gradientUnits="userSpaceOnUse">
<stop stop-color="#4E5BFF"/>
<stop offset="1" stop-color="#26D3A6"/>
</linearGradient>
<linearGradient id="paint16_linear_325_348124" x1="0" y1="4.54224" x2="130.32" y2="4.54224" gradientUnits="userSpaceOnUse">
<stop stop-color="#4E5BFF"/>
<stop offset="1" stop-color="#26D3A6"/>
</linearGradient>
<linearGradient id="paint17_linear_325_348124" x1="0" y1="4.54224" x2="130.32" y2="4.54224" gradientUnits="userSpaceOnUse">
<stop stop-color="#4E5BFF"/>
<stop offset="1" stop-color="#26D3A6"/>
</linearGradient>
<linearGradient id="paint18_linear_325_348124" x1="0" y1="4.54224" x2="130.32" y2="4.54224" gradientUnits="userSpaceOnUse">
<stop stop-color="#4E5BFF"/>
<stop offset="1" stop-color="#26D3A6"/>
</linearGradient>
<linearGradient id="paint19_linear_325_348124" x1="0" y1="4.54224" x2="130.32" y2="4.54224" gradientUnits="userSpaceOnUse">
<stop stop-color="#4E5BFF"/>
<stop offset="1" stop-color="#26D3A6"/>
</linearGradient>
</defs>
</svg>
