<svg width="1em" height="1em" viewBox="0 0 19 19" fill="none" xmlns="http://www.w3.org/2000/svg">
<mask id="mask0_549_74209" style="mask-type:alpha" maskUnits="userSpaceOnUse" x="0" y="0" width="19" height="19">
<rect x="0.677734" y="0.25" width="18" height="18" fill="currentColor"/>
</mask>
<g mask="url(#mask0_549_74209)">
<path d="M7.55097 9.73315C7.39147 9.73315 7.25784 9.67921 7.15009 9.57134C7.04247 9.46359 6.98866 9.33003 6.98866 9.17065V4.27259L5.25072 6.01053C5.14922 6.1144 5.02241 6.16634 4.87028 6.16634C4.71816 6.16634 4.58391 6.11253 4.46753 6.0049C4.35116 5.88753 4.29297 5.75334 4.29297 5.60234C4.29297 5.45146 4.35116 5.31784 4.46753 5.20146L7.06947 2.59953C7.13959 2.52928 7.21391 2.47978 7.29241 2.45103C7.37103 2.42215 7.45522 2.40771 7.54497 2.40771C7.63472 2.40771 7.71997 2.42221 7.80072 2.45121C7.88147 2.48034 7.95647 2.52978 8.02572 2.59953L10.6464 5.22021C10.7579 5.33171 10.8129 5.46103 10.8114 5.60815C10.81 5.75528 10.7512 5.88753 10.6348 6.0049C10.5184 6.11253 10.3867 6.16828 10.2395 6.17215C10.0924 6.1759 9.96072 6.11965 9.84447 6.0034L8.11366 4.27259V9.17778C8.11366 9.33515 8.05972 9.46703 7.95184 9.5734C7.84397 9.6799 7.71034 9.73315 7.55097 9.73315ZM11.8121 16.0851C11.7223 16.0851 11.6371 16.0705 11.5563 16.0414C11.4756 16.0124 11.4006 15.963 11.3313 15.8933L8.71066 13.2726C8.59916 13.161 8.54416 13.0317 8.54566 12.8847C8.54703 12.7375 8.60591 12.6053 8.72228 12.4879C8.83866 12.3803 8.97041 12.3245 9.11753 12.3207C9.26466 12.3168 9.39634 12.373 9.51259 12.4894L11.2434 14.2202V9.31484C11.2434 9.15759 11.2973 9.02571 11.4052 8.91921C11.5131 8.81284 11.6467 8.75965 11.8061 8.75965C11.9656 8.75965 12.0992 8.81353 12.207 8.92128C12.3146 9.02915 12.3684 9.16278 12.3684 9.32215V14.2202L14.1063 12.4821C14.2078 12.3783 14.3347 12.3265 14.4868 12.3265C14.6389 12.3265 14.7732 12.3803 14.8895 12.4879C15.0059 12.6053 15.0641 12.7394 15.0641 12.8903C15.0641 13.0413 15.0059 13.175 14.8895 13.2913L12.2876 15.8933C12.2175 15.9634 12.1432 16.0129 12.0647 16.0418C11.986 16.0707 11.9018 16.0851 11.8121 16.0851Z" fill="currentColor"/>
</g>
</svg>