<svg width="1em" height="1em" viewBox="0 0 18 19" fill="none" xmlns="http://www.w3.org/2000/svg">
<path d="M9 2.3125L9.64569 1.93095C9.51076 1.7026 9.26524 1.5625 9 1.5625C8.73476 1.5625 8.48924 1.7026 8.35431 1.93095L9 2.3125ZM1.6875 14.6875L1.04181 14.306C0.904802 14.5378 0.902622 14.8253 1.03609 15.0592C1.16957 15.2931 1.4182 15.4375 1.6875 15.4375L1.6875 14.6875ZM16.3125 14.6875V15.4375C16.5818 15.4375 16.8304 15.2931 16.9639 15.0592C17.0974 14.8253 17.0952 14.5378 16.9582 14.306L16.3125 14.6875ZM9.75 7.5625C9.75 7.14829 9.41421 6.8125 9 6.8125C8.58579 6.8125 8.25 7.14829 8.25 7.5625H9.75ZM8.25 10.1875C8.25 10.6017 8.58579 10.9375 9 10.9375C9.41421 10.9375 9.75 10.6017 9.75 10.1875H8.25ZM8.25 12.0625C8.25 12.4767 8.58579 12.8125 9 12.8125C9.41421 12.8125 9.75 12.4767 9.75 12.0625H8.25ZM9.75 12.055C9.75 11.6408 9.41421 11.305 9 11.305C8.58579 11.305 8.25 11.6408 8.25 12.055H9.75ZM8.35431 1.93095L1.04181 14.306L2.33319 15.069L9.64569 2.69405L8.35431 1.93095ZM1.6875 15.4375H16.3125V13.9375H1.6875V15.4375ZM16.9582 14.306L9.64569 1.93095L8.35431 2.69405L15.6668 15.069L16.9582 14.306ZM8.25 7.5625V10.1875H9.75V7.5625H8.25ZM8.4375 12.0625C8.4375 11.7518 8.68934 11.5 9 11.5V13C9.51777 13 9.9375 12.5803 9.9375 12.0625H8.4375ZM9 11.5C9.31066 11.5 9.5625 11.7518 9.5625 12.0625H8.0625C8.0625 12.5803 8.48223 13 9 13V11.5ZM9.5625 12.0625C9.5625 12.3732 9.31066 12.625 9 12.625V11.125C8.48223 11.125 8.0625 11.5447 8.0625 12.0625H9.5625ZM9 12.625C8.68934 12.625 8.4375 12.3732 8.4375 12.0625H9.9375C9.9375 11.5447 9.51777 11.125 9 11.125V12.625ZM9.75 12.0625V12.055H8.25V12.0625H9.75Z" fill="currentColor"/>
</svg>